<?xml version="1.0"?>
<svg xmlns="http://www.w3.org/2000/svg" xmlns:xlink="http://www.w3.org/1999/xlink" xmlns:svgjs="http://svgjs.com/svgjs" version="1.1" width="512" height="512" x="0" y="0" viewBox="0 0 512 512" style="enable-background:new 0 0 512 512" xml:space="preserve" class=""><g><g xmlns="http://www.w3.org/2000/svg"><g><circle cx="176.374" cy="425.205" fill="#7ac9f0" r="22.056" data-original="#b1abb5" style="" class=""/></g><g><path d="m184.147 404.586c.913 2.42 1.436 5.033 1.436 7.772 0 12.181-9.875 22.055-22.056 22.055-2.74 0-5.352-.523-7.772-1.436 3.146 8.34 11.179 14.283 20.62 14.283 12.181 0 22.056-9.874 22.056-22.055-.001-9.441-5.944-17.473-14.284-20.619z" fill="#4d8cab" data-original="#786e79" style="" class=""/></g><g><circle cx="232.669" cy="482.458" fill="#7ac9f0" r="22.056" data-original="#b1abb5" style="" class=""/></g><g><path d="m240.441 461.838c.913 2.42 1.436 5.033 1.436 7.772 0 12.181-9.875 22.055-22.056 22.055-2.74 0-5.352-.523-7.772-1.436 3.146 8.34 11.179 14.283 20.62 14.283 12.181 0 22.056-9.874 22.056-22.055 0-9.44-5.944-17.472-14.284-20.619z" fill="#4d8cab" data-original="#786e79" style="" class=""/></g><g><circle cx="357.572" cy="370.585" fill="#7ac9f0" r="22.056" data-original="#b1abb5" style="" class=""/></g><g><path d="m365.345 349.966c.913 2.42 1.436 5.033 1.436 7.772 0 12.181-9.875 22.055-22.056 22.055-2.74 0-5.352-.523-7.772-1.436 3.146 8.34 11.179 14.283 20.62 14.283 12.181 0 22.056-9.874 22.056-22.055-.001-9.441-5.944-17.473-14.284-20.619z" fill="#4d8cab" data-original="#786e79" style="" class=""/></g><g><circle cx="473.544" cy="172.561" fill="#7ac9f0" r="22.056" data-original="#b1abb5" style="" class=""/></g><g><path d="m481.317 151.941c.913 2.42 1.436 5.033 1.436 7.772 0 12.181-9.875 22.055-22.056 22.055-2.74 0-5.352-.523-7.772-1.436 3.146 8.34 11.179 14.283 20.62 14.283 12.181 0 22.056-9.874 22.056-22.055-.001-9.44-5.944-17.472-14.284-20.619z" fill="#4d8cab" data-original="#786e79" style="" class=""/></g><g><circle cx="401.684" cy="29.542" fill="#7ac9f0" r="22.056" data-original="#b1abb5" style="" class=""/></g><g><path d="m409.456 8.922c.913 2.42 1.436 5.033 1.436 7.772 0 12.181-9.875 22.055-22.056 22.055-2.74 0-5.352-.523-7.772-1.436 3.146 8.34 11.179 14.283 20.62 14.283 12.181 0 22.056-9.874 22.056-22.055-.001-9.44-5.944-17.473-14.284-20.619z" fill="#4d8cab" data-original="#786e79" style="" class=""/></g><g><circle cx="335.517" cy="72.937" fill="#7ac9f0" r="22.056" data-original="#b1abb5" style="" class=""/></g><g><path d="m343.289 52.317c.913 2.42 1.436 5.033 1.436 7.772 0 12.181-9.875 22.055-22.056 22.055-2.74 0-5.352-.523-7.772-1.436 3.146 8.34 11.179 14.283 20.62 14.283 12.181 0 22.056-9.874 22.056-22.055-.001-9.44-5.944-17.473-14.284-20.619z" fill="#4d8cab" data-original="#786e79" style="" class=""/></g><g><circle cx="134.311" cy="55.835" fill="#7ac9f0" r="22.056" data-original="#b1abb5" style="" class=""/></g><g><path d="m142.084 35.215c.913 2.42 1.436 5.033 1.436 7.772 0 12.181-9.875 22.055-22.056 22.055-2.74 0-5.352-.523-7.772-1.436 3.146 8.34 11.179 14.283 20.62 14.283 12.181 0 22.056-9.874 22.056-22.055-.001-9.44-5.944-17.473-14.284-20.619z" fill="#4d8cab" data-original="#786e79" style="" class=""/></g><g><circle cx="97.622" cy="243.374" fill="#7ac9f0" r="22.056" data-original="#b1abb5" style="" class=""/></g><g><path d="m105.394 222.754c.913 2.42 1.436 5.033 1.436 7.772 0 12.181-9.875 22.055-22.056 22.055-2.74 0-5.352-.523-7.772-1.436 3.146 8.34 11.179 14.283 20.62 14.283 12.181 0 22.056-9.874 22.056-22.055-.001-9.44-5.944-17.473-14.284-20.619z" fill="#4d8cab" data-original="#786e79" style="" class=""/></g><g><g><circle cx="140.603" cy="148.56" fill="#f3d500" r="31.832" data-original="#fba615" style="" class=""/></g><g><path d="m154.374 119.853c2.003 4.168 3.126 8.838 3.126 13.771 0 17.58-14.252 31.832-31.832 31.832-4.933 0-9.604-1.123-13.771-3.126 5.135 10.685 16.059 18.061 28.706 18.061 17.58 0 31.832-14.252 31.832-31.832 0-12.647-7.376-23.57-18.061-28.706z" fill="#f88604" data-original="#f88604" style="" class=""/></g></g><g><g><circle cx="384.253" cy="148.56" fill="#f3d500" r="31.832" data-original="#fba615" style="" class=""/></g><g><path d="m398.024 119.853c2.003 4.168 3.126 8.838 3.126 13.771 0 17.58-14.252 31.832-31.832 31.832-4.933 0-9.604-1.123-13.771-3.126 5.135 10.685 16.059 18.061 28.706 18.061 17.58 0 31.832-14.252 31.832-31.832 0-12.647-7.376-23.57-18.061-28.706z" fill="#f88604" data-original="#f88604" style="" class=""/></g></g><g><g><circle cx="263.825" cy="363.36" fill="#7ac9f0" r="31.832" data-original="#b1abb5" style="" class=""/></g><g><path d="m277.596 334.653c2.003 4.168 3.126 8.838 3.126 13.771 0 17.58-14.252 31.832-31.832 31.832-4.933 0-9.604-1.123-13.771-3.126 5.135 10.685 16.059 18.061 28.706 18.061 17.58 0 31.832-14.252 31.832-31.832 0-12.647-7.376-23.571-18.061-28.706z" fill="#4d8cab" data-original="#786e79" style="" class=""/></g></g><g><g><circle cx="321.838" cy="447.261" fill="#f3d500" r="31.832" data-original="#fba615" style="" class=""/></g><g><path d="m335.61 418.555c2.003 4.168 3.126 8.838 3.126 13.771 0 17.58-14.252 31.832-31.832 31.832-4.933 0-9.604-1.123-13.771-3.126 5.135 10.685 16.059 18.061 28.706 18.061 17.58 0 31.832-14.252 31.832-31.832 0-12.647-7.377-23.571-18.061-28.706z" fill="#f88604" data-original="#f88604" style="" class=""/></g></g><g><g><circle cx="48.233" cy="87.667" fill="#f3d500" r="31.832" data-original="#fba615" style="" class=""/></g><g><path d="m62.004 58.96c2.003 4.168 3.126 8.838 3.126 13.771 0 17.58-14.252 31.832-31.832 31.832-4.933 0-9.604-1.123-13.771-3.126 5.135 10.685 16.059 18.061 28.706 18.061 17.58 0 31.832-14.252 31.832-31.832 0-12.647-7.376-23.571-18.061-28.706z" fill="#f88604" data-original="#f88604" style="" class=""/></g></g><path d="m473.544 143.02c-10.962 0-20.542 6.007-25.64 14.898l-24.443-6.57c.065-.922.11-1.85.11-2.788 0-17.125-11.009-31.719-26.319-37.099l7.698-52.562c14.758-1.631 26.275-14.172 26.275-29.357 0-16.289-13.252-29.542-29.541-29.542s-29.542 13.253-29.542 29.542c0 12.193 7.426 22.684 17.993 27.189l-7.697 52.557c-4.504.206-8.809 1.178-12.797 2.781l-12.361-19.18c4.826-5.26 7.778-12.267 7.778-19.952 0-16.289-13.252-29.542-29.542-29.542-16.289 0-29.542 13.253-29.542 29.542s13.252 29.542 29.542 29.542c3.207 0 6.292-.521 9.186-1.469l12.365 19.186c-5.4 5.178-9.327 11.874-11.089 19.398h-167.1c-3.709-15.835-17.009-28.009-33.418-30.041l-1.745-25.72c11.691-3.937 20.138-14.996 20.138-27.998 0-16.289-13.252-29.542-29.542-29.542s-29.541 13.253-29.541 29.542c0 14.397 10.355 26.415 24.007 29.014l1.744 25.709c-6.937 1.842-13.124 5.538-18.002 10.522l-27.945-18.422c1.914-4.623 2.977-9.685 2.977-14.991 0-17.524-11.768-33.086-28.618-37.843-3.978-1.123-8.115 1.191-9.238 5.17s1.192 8.116 5.171 9.239c10.429 2.945 17.713 12.581 17.713 23.434 0 13.424-10.922 24.346-24.346 24.346-13.425 0-24.346-10.922-24.346-24.346 0-5.459 1.764-10.616 5.101-14.915 2.535-3.265 1.943-7.969-1.324-10.504-3.265-2.535-7.969-1.942-10.504 1.324-5.394 6.949-8.245 15.281-8.245 24.095 0 21.68 17.638 39.318 39.318 39.318 10.993 0 20.942-4.541 28.084-11.838l27.945 18.422c-1.914 4.623-2.977 9.684-2.977 14.991 0 13.209 6.554 24.908 16.574 32.042l-15.259 33.658c-1.62-.276-3.281-.428-4.978-.428-16.289 0-29.542 13.253-29.542 29.542s13.252 29.542 29.542 29.542 29.542-13.253 29.542-29.542c0-9.24-4.267-17.5-10.931-22.921l15.256-33.653c2.928.698 5.977 1.078 9.115 1.078 4.243 0 8.327-.684 12.158-1.933l85.303 147.749c-8.296 7.214-13.557 17.834-13.557 29.665 0 5.762 1.256 11.233 3.492 16.168l-32.63 23.076c-5.14-4.326-11.766-6.94-18.995-6.94-16.289 0-29.542 13.253-29.542 29.542s13.252 29.542 29.542 29.542 29.542-13.253 29.542-29.542c0-3.654-.672-7.153-1.89-10.387l32.632-23.077c2.98 2.854 6.4 5.252 10.157 7.063l-14.156 54.113c-16.285.006-29.531 13.256-29.531 29.541 0 16.289 13.252 29.542 29.542 29.542 16.289 0 29.541-13.253 29.541-29.542 0-11.033-6.084-20.667-15.07-25.739l14.16-54.13c.835.053 1.675.09 2.524.09 5.617 0 10.958-1.192 15.795-3.324l14.126 20.435c-6.938 7.093-11.227 16.789-11.227 27.472 0 21.68 17.638 39.318 39.318 39.318 4.134 0 7.486-3.351 7.486-7.486s-3.352-7.486-7.486-7.486c-13.425 0-24.346-10.922-24.346-24.346s10.922-24.346 24.346-24.346 24.346 10.922 24.346 24.346c0 3.507-.727 6.888-2.161 10.048-1.709 3.764-.042 8.202 3.723 9.91 3.763 1.711 8.202.043 9.911-3.723 2.322-5.116 3.5-10.579 3.5-16.235 0-21.68-17.638-39.318-39.318-39.318-5.613 0-10.95 1.191-15.785 3.319l-14.129-20.438c4.592-4.697 8.016-10.535 9.807-17.046l26.778 2.069c2.49 13.786 14.57 24.28 29.063 24.28 16.289 0 29.542-13.253 29.542-29.542s-13.252-29.542-29.542-29.542c-12.905 0-23.896 8.321-27.909 19.876l-26.786-2.07c-1.148-10.004-6.064-18.872-13.291-25.156l52.413-90.783c2.067-3.58.841-8.159-2.74-10.226-3.582-2.066-8.159-.842-10.226 2.74l-52.405 90.768c-4.017-1.388-8.322-2.152-12.804-2.152s-8.787.764-12.803 2.152l-85.172-147.522c7.142-5.998 12.131-14.479 13.613-24.105h165.931c1.611 10.467 7.368 19.583 15.532 25.621l-14.988 25.959c-2.067 3.58-.841 8.159 2.74 10.226 1.179.68 2.466 1.004 3.736 1.004 2.587 0 5.103-1.342 6.49-3.744l15.579-26.983c3.125.802 6.398 1.23 9.77 1.23 15.496 0 28.922-9.013 35.324-22.07l24.431 6.567c0 .063-.005.125-.005.187 0 16.289 13.252 29.542 29.541 29.542s29.542-13.253 29.542-29.542-13.253-29.543-29.542-29.543zm-152.597-70.084c0-8.034 6.536-14.57 14.57-14.57s14.57 6.536 14.57 14.57-6.536 14.57-14.57 14.57-14.57-6.536-14.57-14.57zm-223.325 185.008c-8.034 0-14.57-6.536-14.57-14.57s6.536-14.57 14.57-14.57 14.57 6.536 14.57 14.57-6.536 14.57-14.57 14.57zm135.047 239.084c-8.034 0-14.57-6.536-14.57-14.57s6.536-14.57 14.57-14.57c8.033 0 14.569 6.536 14.569 14.57s-6.535 14.57-14.569 14.57zm-56.294-57.253c-8.034 0-14.57-6.536-14.57-14.57s6.536-14.57 14.57-14.57 14.57 6.536 14.57 14.57c-.001 8.034-6.537 14.57-14.57 14.57zm181.197-83.759c8.034 0 14.57 6.536 14.57 14.57s-6.536 14.57-14.57 14.57-14.57-6.536-14.57-14.57 6.537-14.57 14.57-14.57zm-69.401 7.344c0 13.424-10.922 24.346-24.346 24.346s-24.346-10.922-24.346-24.346 10.922-24.346 24.346-24.346c13.425-.001 24.346 10.921 24.346 24.346zm113.513-348.388c8.034 0 14.57 6.536 14.57 14.57s-6.536 14.57-14.57 14.57-14.57-6.536-14.57-14.57 6.536-14.57 14.57-14.57zm-281.942 40.863c0-8.034 6.536-14.57 14.57-14.57s14.57 6.536 14.57 14.57-6.536 14.57-14.57 14.57-14.57-6.537-14.57-14.57zm-3.485 92.724c0-13.424 10.922-24.345 24.346-24.345s24.346 10.921 24.346 24.345-10.922 24.346-24.346 24.346c-13.424.001-24.346-10.921-24.346-24.346zm267.996 24.347c-13.425 0-24.346-10.922-24.346-24.346s10.922-24.345 24.346-24.345 24.346 10.921 24.346 24.345-10.922 24.346-24.346 24.346zm89.291 14.225c-8.033 0-14.569-6.536-14.569-14.57s6.536-14.57 14.569-14.57c8.034 0 14.57 6.536 14.57 14.57s-6.536 14.57-14.57 14.57z" fill="#000000" data-original="#000000" style="" class=""/></g></g></svg>
