<?xml version="1.0"?>
<svg xmlns="http://www.w3.org/2000/svg" xmlns:xlink="http://www.w3.org/1999/xlink" xmlns:svgjs="http://svgjs.com/svgjs" version="1.1" width="512" height="512" x="0" y="0" viewBox="0 0 511 511.99978" style="enable-background:new 0 0 512 512" xml:space="preserve" class=""><g><path xmlns="http://www.w3.org/2000/svg" d="m239.066406 14.828125-52.625 141.167969h-45.960937l-52.621094-141.167969c-1.304687-3.507813 1.285156-7.238281 5.023437-7.238281h141.15625c3.742188 0 6.328126 3.730468 5.027344 7.238281zm0 0" fill="#f3d500" data-original="#a86000" style="" class=""/><path xmlns="http://www.w3.org/2000/svg" d="m175.871094 155.992188h-35.386719l-52.621094-141.167969c-1.304687-3.507813 1.285157-7.238281 5.023438-7.238281h35.386719c-3.742188 0-6.328126 3.730468-5.027344 7.238281zm0 0" fill="#f88604" data-original="#7c3f2c" style="" class=""/><path xmlns="http://www.w3.org/2000/svg" d="m295.945312 363.535156h-264.964843c-17.894531 0-28.734375-19.523437-19.535157-34.871094 15.289063-25.46875 16.613282-55.101562 16.613282-55.101562v-44.351562c0-37.386719 15.152344-71.234376 39.660156-95.730469 24.496094-24.507813 58.355469-39.664063 95.742188-39.664063 5.996093 0 11.898437.394532 17.695312 1.152344 66.410156 8.664062 117.699219 65.464844 117.699219 134.242188v44.351562s1.335937 29.632812 16.609375 55.101562c9.210937 15.347657-1.625 34.871094-19.519532 34.871094zm0 0" fill="#f3d500" data-original="#ca7400" style="" class=""/><path xmlns="http://www.w3.org/2000/svg" d="m46.835938 328.660156c-9.199219 15.347656 1.636718 34.871094 19.53125 34.871094h-35.382813c-17.894531 0-28.734375-19.523438-19.535156-34.871094 15.289062-25.464844 16.613281-55.097656 16.613281-55.097656v-44.355469c0-37.386719 15.152344-71.234375 39.660156-95.730469 24.496094-24.507812 58.355469-39.664062 95.742188-39.664062 5.996094 0 11.902344.394531 17.695312 1.15625-30.3125 3.949219-57.488281 17.933594-78.050781 38.507812-24.507813 24.496094-39.664063 58.34375-39.664063 95.730469v44.355469s-1.324218 29.632812-16.609374 55.097656zm0 0" fill="#f88604" data-original="#b96a00" style="" class=""/><path xmlns="http://www.w3.org/2000/svg" d="m442.375 133.910156-29.417969 5.183594c-.347656 5.300781-1.273437 10.441406-2.699219 15.371094l25.863282 14.929687c2.511718 1.453125 3.375 4.664063 1.921875 7.175781l-12.132813 21.019532c-1.453125 2.511718-4.664062 3.375-7.175781 1.921875l-25.882813-14.933594c-3.605468 3.75-7.601562 7.125-11.945312 10.03125l10.222656 28.074219c.988282 2.726562-.421875 5.734375-3.144531 6.730468l-7.964844 2.898438-14.839843 5.398438c-2.726563.992187-5.742188-.410157-6.734376-3.136719l-7.601562-20.90625-2.617188-7.167969c-1.449218.152344-2.910156.265625-4.390624.332031-1.128907.0625-2.265626.085938-3.410157.085938-2.628906 0-5.238281-.144531-7.800781-.417969l-10.21875 28.078125c-.988281 2.722656-4.007812 4.125-6.730469 3.136719l-22.804687-8.296875c-2.726563-1-4.136719-4.007813-3.144532-6.734375l10.21875-28.074219c-4.339843-2.90625-8.339843-6.28125-11.945312-10.03125l-25.878906 14.933594c-2.511719 1.453125-5.722656.589843-7.175782-1.921875l-12.132812-21.019532c-1.453125-2.511718-.589844-5.722656 1.921875-7.175781l25.863281-14.925781c-1.429687-4.929688-2.34375-10.074219-2.703125-15.371094l-29.417969-5.1875c-2.859374-.503906-4.765624-3.230468-4.261718-6.09375l4.210937-23.898437c.503907-2.851563 3.230469-4.765625 6.09375-4.261719l29.398438 5.1875c2.128906-4.804688 4.753906-9.324219 7.820312-13.507812l-19.207031-22.882813c-1.863281-2.230469-1.574219-5.535156.648438-7.40625l18.59375-15.601563c2.21875-1.863281 5.535156-1.574218 7.398437.648438l19.199219 22.878906c4.628906-2.28125 9.542968-4.082031 14.671875-5.339844v-29.859374c0-2.90625 2.347656-5.257813 5.253906-5.257813h24.261719c2.90625 0 5.257812 2.351563 5.257812 5.257813v29.859374c5.125 1.257813 10.039063 3.058594 14.667969 5.339844l19.199219-22.878906c1.863281-2.222656 5.179687-2.511719 7.398437-.648438l18.59375 15.601563c2.222657 1.871094 2.511719 5.175781.648438 7.40625l-19.207031 22.882813c3.070312 4.183593 5.691406 8.707031 7.820312 13.507812l29.40625-5.1875c2.855469-.503906 5.582031 1.410156 6.085938 4.261719l4.210937 23.898437c.5 2.863282-1.402344 5.589844-4.265625 6.09375zm0 0" fill="#7ac9f0" data-original="#1980f9" style="" class=""/><path xmlns="http://www.w3.org/2000/svg" d="m326.101562 84.28125c-7.335937 14.605469-11.476562 31.105469-11.476562 48.570312 0 8.933594 1.078125 17.605469 3.121094 25.910157 2.042968 8.304687 5.042968 16.226562 8.867187 23.648437 4.609375 8.945313 10.421875 17.152344 17.226563 24.421875-1.128906.066407-2.269532.085938-3.410156.085938-2.632813 0-5.238282-.140625-7.804688-.414063l-10.214844 28.074219c-.988281 2.726563-4.011718 4.128906-6.738281 3.128906l-22.800781-8.292969c-2.730469-1-4.132813-4.007812-3.144532-6.738281l10.21875-28.070312c-4.335937-2.902344-8.335937-6.28125-11.945312-10.03125l-25.878906 14.933593c-2.507813 1.453126-5.726563.59375-7.183594-1.914062l-12.128906-21.019531c-1.453125-2.511719-.585938-5.726563 1.925781-7.183594l25.867187-14.921875c-1.4375-4.9375-2.347656-10.074219-2.707031-15.367188l-29.410156-5.195312c-2.867187-.5-4.769531-3.230469-4.269531-6.085938l4.214844-23.898437c.5-2.859375 3.226562-4.773437 6.085937-4.261719l29.398437 5.183594c2.132813-4.804688 4.761719-9.324219 7.828126-13.507812l-19.207032-22.878907c-1.867187-2.238281-1.574218-5.542969.640625-7.410156l18.597657-15.597656c2.214843-1.867188 5.53125-1.574219 7.402343.640625l19.191407 22.890625c4.628906-2.285157 9.542968-4.089844 14.671874-5.347657v-29.855468c0-2.914063 2.347657-5.261719 5.261719-5.261719h24.257813c2.910156 0 5.257812 2.347656 5.257812 5.261719v12.53125c-13.28125 10.007812-24.179687 22.984375-31.703125 37.972656zm0 0" fill="#4d8cab" data-original="#285fb3" style="" class=""/><path xmlns="http://www.w3.org/2000/svg" d="m380.019531 232.304688-14.84375 5.402343c-2.71875 1-5.738281-.402343-6.726562-3.128906l-7.609375-20.910156c8.609375 7.683593 18.445312 14.007812 29.179687 18.636719zm0 0" fill="#4d8cab" data-original="#285fb3" style="" class=""/><path xmlns="http://www.w3.org/2000/svg" d="m391.460938 133.277344c0 23.734375-16.199219 43.675781-38.140626 49.382812-.09375.027344-.195312.054688-.289062.070313-4.035156 1.035156-8.253906 1.582031-12.605469 1.582031-4.785156 0-9.414062-.660156-13.804687-1.898438-21.480469-6.015624-37.226563-25.734374-37.226563-49.136718 0-23.214844 15.496094-42.816406 36.722657-49 4.535156-1.332032 9.347656-2.042969 14.3125-2.042969 4.347656 0 8.566406.546875 12.601562 1.582031.09375.015625.195312.042969.289062.066406 21.941407 5.707032 38.140626 25.65625 38.140626 49.394532zm0 0" fill="#7ac9f0" data-original="#63a6fd" style="" class=""/><path xmlns="http://www.w3.org/2000/svg" d="m366.222656 133.277344c0 6.886718-2.683594 13.363281-7.554687 18.234375-1.9375 1.929687-4.128907 3.519531-6.484375 4.722656-.632813.335937-1.273438.625-1.921875.898437-3.085938 1.273438-6.410157 1.929688-9.835938 1.929688-6.886719 0-13.363281-2.683594-18.234375-7.554688-4.878906-4.867187-7.558594-11.34375-7.558594-18.230468 0-6.894532 2.683594-13.371094 7.558594-18.242188 4.871094-4.871094 11.347656-7.554687 18.234375-7.554687 3.425781 0 6.75.667969 9.835938 1.933593.648437.269532 1.289062.5625 1.921875.894532 2.359375 1.207031 4.546875 2.792968 6.484375 4.726562 4.871093 4.871094 7.554687 11.347656 7.554687 18.242188zm0 0" fill="#7ac9f0" data-original="#1980f9" style="" class=""/><path xmlns="http://www.w3.org/2000/svg" d="m326.613281 182.410156c-21.476562-6.011718-37.222656-25.738281-37.222656-49.136718 0-23.214844 15.496094-42.796876 36.710937-48.992188-7.335937 14.605469-11.476562 31.105469-11.476562 48.570312 0 8.933594 1.074219 17.605469 3.121094 25.910157 2.042968 8.300781 5.042968 16.226562 8.867187 23.648437zm0 0" fill="#7ac9f0" data-original="#4395fb" style="" class=""/><path xmlns="http://www.w3.org/2000/svg" d="m345.6875 151.511719c1.933594 1.933593 4.128906 3.519531 6.5 4.726562-.640625.328125-1.28125.621094-1.925781.890625-3.085938 1.273438-6.410157 1.9375-9.835938 1.9375-6.890625 0-13.367187-2.6875-18.234375-7.554687-4.882812-4.871094-7.566406-11.347657-7.566406-18.238281 0-6.890626 2.683594-13.367188 7.566406-18.234376 4.867188-4.871093 11.34375-7.554687 18.234375-7.554687 3.421875 0 6.75.664063 9.835938 1.925781.640625.28125 1.28125.5625 1.925781.902344-2.371094 1.203125-4.566406 2.792969-6.5 4.726562-4.878906 4.867188-7.5625 11.347657-7.5625 18.234376 0 6.890624 2.683594 13.367187 7.5625 18.238281zm0 0" fill="#4d8cab" data-original="#285fb3" style="" class=""/><path xmlns="http://www.w3.org/2000/svg" d="m499.671875 381.238281-34.800781 6.132813c-.414063 6.269531-1.507813 12.351562-3.195313 18.183594l30.59375 17.660156c2.972657 1.71875 3.996094 5.519531 2.277344 8.488281l-14.355469 24.867187c-1.71875 2.96875-5.519531 3.992188-8.488281 2.273438l-30.617187-17.667969c-4.265626 4.433594-8.996094 8.429688-14.128907 11.863281l12.089844 33.214844c1.171875 3.222656-.496094 6.78125-3.722656 7.964844l-9.417969 3.425781-17.558594 6.386719c-3.222656 1.171875-6.792968-.484375-7.964844-3.707031l-8.996093-24.734375-3.09375-8.480469c-1.71875.183594-3.445313.3125-5.195313.394531-1.332031.070313-2.675781.101563-4.03125.101563-3.113281 0-6.195312-.171875-9.230468-.496094l-12.085938 33.214844c-1.175781 3.222656-4.742188 4.878906-7.964844 3.707031l-26.976562-9.8125c-3.226563-1.183594-4.894532-4.742188-3.71875-7.964844l12.085937-33.214844c-5.132812-3.4375-9.863281-7.429687-14.128906-11.867187l-30.617187 17.667969c-2.96875 1.71875-6.769532.699218-8.488282-2.273438l-14.355468-24.863281c-1.71875-2.972656-.695313-6.773437 2.277343-8.492187l30.59375-17.65625c-1.6875-5.832032-2.769531-11.917969-3.195312-18.183594l-34.796875-6.132813c-3.386719-.597656-5.640625-3.824219-5.046875-7.207031l4.984375-28.273438c.597656-3.375 3.820312-5.640624 7.207031-5.042968l34.777344 6.136718c2.519531-5.679687 5.621093-11.027343 9.25-15.980468l-22.722657-27.066406c-2.203124-2.640626-1.859374-6.550782.769532-8.765626l21.992187-18.453124c2.628907-2.207032 6.550781-1.863282 8.753907.765624l22.710937 27.070313c5.480469-2.699219 11.292969-4.832031 17.355469-6.320313v-35.324218c0-3.4375 2.78125-6.214844 6.214844-6.214844h28.707031c3.4375 0 6.214843 2.777344 6.214843 6.214844v35.324218c6.066407 1.488282 11.878907 3.621094 17.355469 6.320313l22.710938-27.070313c2.203125-2.625 6.125-2.96875 8.753906-.765624l21.992187 18.453124c2.628907 2.214844 2.972657 6.125.769532 8.765626l-22.71875 27.066406c3.628906 4.953125 6.730468 10.300781 9.25 15.980468l34.789062-6.136718c3.375-.59375 6.597656 1.667968 7.195313 5.046875l4.984375 28.269531c.59375 3.386719-1.65625 6.609375-5.042969 7.207031zm0 0" fill="#7ac9f0" data-original="#1980f9" style="" class=""/><path xmlns="http://www.w3.org/2000/svg" d="m362.125 322.527344c-8.679688 17.28125-13.578125 36.796875-13.578125 57.457031 0 10.570313 1.273437 20.832031 3.691406 30.652344 2.414063 9.824219 5.964844 19.195312 10.488281 27.976562 5.453126 10.582031 12.332032 20.289063 20.378907 28.890625-1.335938.074219-2.6875.101563-4.035157.101563-3.113281 0-6.199218-.167969-9.234374-.488281l-12.085938 33.210937c-1.167969 3.226563-4.742188 4.882813-7.96875 3.699219l-26.976562-9.808594c-3.226563-1.183594-4.882813-4.742188-3.714844-7.96875l12.085937-33.210938c-5.128906-3.433593-9.859375-7.429687-14.128906-11.867187l-30.613281 17.664063c-2.96875 1.722656-6.773438.707031-8.496094-2.261719l-14.351562-24.867188c-1.722657-2.96875-.691407-6.773437 2.277343-8.496093l30.597657-17.652344c-1.695313-5.839844-2.777344-11.917969-3.199219-18.179688l-34.792969-6.148437c-3.394531-.589844-5.644531-3.816407-5.050781-7.199219l4.988281-28.273438c.589844-3.378906 3.816406-5.644531 7.199219-5.039062l34.777343 6.132812c2.519532-5.683593 5.628907-11.03125 9.257813-15.980468l-22.71875-27.0625c-2.210937-2.648438-1.867187-6.558594.757813-8.769532l21.996093-18.449218c2.625-2.210938 6.546875-1.863282 8.757813.757812l22.703125 27.078125c5.476562-2.703125 11.289062-4.835937 17.359375-6.328125v-35.316406c0-3.445312 2.777344-6.222656 6.222656-6.222656h28.695312c3.445313 0 6.222657 2.777344 6.222657 6.222656v14.824219c-15.710938 11.839843-28.605469 27.191406-37.503907 44.921875zm0 0" fill="#4d8cab" data-original="#285fb3" style="" class=""/><path xmlns="http://www.w3.org/2000/svg" d="m425.90625 497.640625-17.5625 6.386719c-3.214844 1.183594-6.789062-.472656-7.957031-3.699219l-9-24.738281c10.183593 9.089844 21.816406 16.570312 34.519531 22.050781zm0 0" fill="#4d8cab" data-original="#285fb3" style="" class=""/><path xmlns="http://www.w3.org/2000/svg" d="m439.441406 380.488281c0 28.078125-19.164062 51.671875-45.121094 58.421875-.113281.03125-.234374.0625-.34375.082032-4.769531 1.222656-9.765624 1.871093-14.910156 1.871093-5.660156 0-11.136718-.78125-16.332031-2.246093-25.410156-7.113282-44.039063-30.441407-44.039063-58.125 0-27.464844 18.335938-50.648438 43.441407-57.96875 5.367187-1.578126 11.058593-2.414063 16.929687-2.414063 5.148438 0 10.140625.644531 14.910156 1.867187.109376.019532.230469.050782.34375.082032 25.957032 6.75 45.121094 30.351562 45.121094 58.429687zm0 0" fill="#7ac9f0" data-original="#63a6fd" style="" class=""/><path xmlns="http://www.w3.org/2000/svg" d="m409.582031 380.488281c0 8.148438-3.171875 15.808594-8.933593 21.570313-2.296876 2.285156-4.882813 4.164062-7.671876 5.589844-.75.394531-1.507812.738281-2.273437 1.0625-3.648437 1.503906-7.582031 2.28125-11.636719 2.28125-8.144531 0-15.804687-3.171876-21.566406-8.933594-5.773438-5.761719-8.945312-13.421875-8.945312-21.570313 0-8.15625 3.171874-15.816406 8.945312-21.578125 5.761719-5.761718 13.421875-8.9375 21.566406-8.9375 4.054688 0 7.988282.789063 11.636719 2.285156.765625.324219 1.523437.667969 2.273437 1.0625 2.789063 1.425782 5.375 3.304688 7.671876 5.589844 5.761718 5.761719 8.933593 13.421875 8.933593 21.578125zm0 0" fill="#7ac9f0" data-original="#1980f9" style="" class=""/><path xmlns="http://www.w3.org/2000/svg" d="m362.726562 438.613281c-25.402343-7.109375-44.035156-30.445312-44.035156-58.125 0-27.464843 18.335938-50.632812 43.433594-57.960937-8.679688 17.28125-13.578125 36.796875-13.578125 57.457031 0 10.570313 1.273437 20.832031 3.691406 30.652344 2.414063 9.824219 5.964844 19.195312 10.488281 27.976562zm0 0" fill="#7ac9f0" data-original="#4395fb" style="" class=""/><path xmlns="http://www.w3.org/2000/svg" d="m385.292969 402.0625c2.289062 2.289062 4.882812 4.164062 7.6875 5.589844-.757813.386718-1.515625.734375-2.277344 1.054687-3.648437 1.503907-7.585937 2.289063-11.632813 2.289063-8.152343 0-15.816406-3.175782-21.574218-8.933594-5.773438-5.761719-8.949219-13.421875-8.949219-21.574219 0-8.152343 3.175781-15.8125 8.949219-21.574219 5.757812-5.757812 13.421875-8.933593 21.574218-8.933593 4.046876 0 7.984376.78125 11.632813 2.273437.761719.335938 1.519531.667969 2.277344 1.066406-2.800781 1.429688-5.398438 3.304688-7.6875 5.59375-5.773438 5.761719-8.949219 13.421876-8.949219 21.574219 0 8.148438 3.175781 15.8125 8.949219 21.574219zm0 0" fill="#4d8cab" data-original="#285fb3" style="" class=""/><path xmlns="http://www.w3.org/2000/svg" d="m500.921875 388.671875c7.496094-1.316406 12.527344-8.441406 11.203125-15.984375l-4.996094-28.277344c-1.339844-7.644531-8.625-12.503906-15.984375-11.191406l-29.144531 5.136719c-1.253906-2.40625-2.609375-4.765625-4.074219-7.046875l19.027344-22.679688c4.890625-5.832031 4.125-14.546875-1.699219-19.441406l-22-18.460938c-5.832031-4.890624-14.546875-4.125-19.441406 1.699219l-19.015625 22.667969c-2.507813-1.042969-5.078125-1.972656-7.664063-2.792969v-29.582031c0-7.613281-6.1875-13.800781-13.800781-13.800781h-28.714843c-7.613282 0-13.796876 6.1875-13.796876 13.800781v29.582031c-2.601562.820313-5.148437 1.75-7.664062 2.792969l-19.019531-22.667969c-4.425781-5.277343-11.980469-6.398437-17.703125-2.941406v-26.953125l6.339844 2.304688c6.589843 2.394531 14.042968-.972657 16.480468-7.695313l8.308594-22.828125c1.792969.050781 3.550781.050781 5.339844 0l8.308594 22.839844c2.429687 6.660156 9.820312 10.097656 16.480468 7.683594l22.910156-8.339844c6.660157-2.414063 10.125-9.78125 7.695313-16.492188l-8.3125-22.828125c1.394531-1.101562 2.761719-2.242187 4.074219-3.425781l21.050781 12.152344c6.136719 3.539062 14.023437 1.425781 17.570313-4.710938l12.191406-21.109375c3.554687-6.164062 1.457031-14.007812-4.710938-17.574219l-21.039062-12.152343c.363281-1.738281.679687-3.488281.921875-5.246094l23.929687-4.226563c6.984375-1.230468 11.667969-7.867187 10.433594-14.890624l-4.234375-24.011719c-1.234375-6.984375-7.917969-11.675781-14.894531-10.433594l-23.929688 4.214844c-.839844-1.566407-1.730468-3.101563-2.667968-4.621094l15.617187-18.609375c4.5625-5.429688 3.84375-13.558594-1.585937-18.117188l-18.671876-15.671874c-5.441406-4.558594-13.570312-3.851563-18.117187 1.585937l-15.621094 18.601563c-1.648437-.664063-3.328125-1.273438-5.015625-1.828126v-24.285156c0-7.085937-5.773437-12.859375-12.859375-12.859375h-24.386719c-7.085937 0-12.859374 5.773438-12.859374 12.859375v24.285156c-1.6875.554688-3.367188 1.164063-5.015626 1.828126l-15.609374-18.601563c-4.558594-5.4375-12.6875-6.144531-18.117188-1.585937l-18.683594 15.671874c-5.425781 4.558594-6.136718 12.6875-1.585937 18.117188l15.621093 18.609375c-.941406 1.519531-1.832031 3.054687-2.671874 4.621094l-23.917969-4.214844c-6.34375-1.121094-13.480469 2.523437-15.042969 11.222656-4.359375-2.316406-8.847656-4.410156-13.457031-6.257812l32.160156-86.28125c1.859375-4.972657-1.839844-10.230469-7.097656-10.230469h-156.605469c-5.3125 0-8.941406 5.304688-7.105469 10.230469l32.136719 86.210937c-17.84375 7.144532-34.210938 17.945313-48.171875 31.996094-2.953125 2.972656-2.933594 7.777344.039063 10.726562 2.960937 2.953126 7.765624 2.941407 10.714843-.03125 41.753907-42.058593 105.515625-49.097656 154.605469-20.570312-1.28125 7.234375-2.894531 11.742188.820312 17.035156 1.96875 2.820313 4.921876 4.691406 8.296876 5.285156l22.992187 4.066407.941406.160156c.050781.375.109375.75.171875 1.121094.210938 1.386719.464844 2.761719.746094 4.125l-21.039062 12.152343c-6.148438 3.558594-8.269532 11.386719-4.699219 17.5625l12.179687 21.121094c3.550782 6.136719 11.4375 8.25 17.574219 4.710938.1875-.109375 20.859375-12.042969 21.046875-12.152344 1.324219 1.183594 2.679688 2.324219 4.085938 3.425781-2.558594 7.042969-.886719 2.449219-8.320313 22.839844-2.433594 6.691406 1.039063 14.066406 7.691406 16.480469l1.40625.515625v36.546875c0 .109375.011719.230468.011719.34375.019531.375.152344 3.113281.71875 7.480468l-9.304688 7.804688c-5.820312 4.894531-6.589843 13.609375-1.695312 19.441406l19.027344 22.679688c-1.46875 2.28125-2.824219 4.640625-4.078125 7.046875l-29.144531-5.136719c-7.429688-1.320312-14.65625 3.605469-15.984376 11.191406l-2.042968 11.535156h-50.023438c-4.1875 0-7.582031 3.398438-7.582031 7.582032 0 4.1875 3.394531 7.582031 7.582031 7.582031h47.355469c-1.816406 10.125 3.953125 16.339844 10.90625 17.5625l29.160156 5.144531c.351563 2.699219.816407 5.371094 1.402344 8.019532l-25.628906 14.800781c-6.597657 3.800781-8.867188 12.261719-5.042969 18.84375l14.355469 24.871093c3.800781 6.59375 12.265625 8.855469 18.847656 5.054688l25.648437-14.800781c2 1.828125 4.074219 3.578125 6.226563 5.226562l-10.121094 27.824219c-2.632812 7.230469 1.136719 15.105469 8.242188 17.683594l26.992187 9.824218c7.058594 2.582032 15.050782-1.03125 17.683594-8.25l10.121094-27.820312c2.726562.121094 5.417968.121094 8.148437 0l10.117188 27.820312c2.609375 7.148438 10.535156 10.859376 17.683593 8.25l26.996094-9.824218c7.144532-2.601563 10.847656-10.535156 8.246094-17.683594l-10.128906-27.824219c2.152344-1.648437 4.226562-3.398437 6.226562-5.226562l25.652344 14.800781c6.582031 3.800781 15.042969 1.539062 18.84375-5.054688l14.367188-24.871093c3.800781-6.589844 1.535156-15.042969-5.054688-18.84375l-25.628906-14.800781c.585937-2.648438 1.050781-5.320313 1.402344-8.019532zm-376.367187-297.113281-28.480469-76.394532h134.769531l-28.492188 76.433594c-24.746093-7.003906-52.015624-7.300781-77.796874-.039062zm159.214843 86.195312c-3.53125 2.050782.304688-.167968-24.003906 13.863282l-9.875-17.128907c25.054687-14.476562 21.445313-12.394531 23.980469-13.847656 3.011718-1.742187 4.457031-5.320313 3.488281-8.675781-1.332031-4.625-2.125-9.328125-2.425781-13.832032-.222656-3.488281-2.800782-6.359374-6.25-6.964843l-1.503906-.261719-25.78125-4.550781c3.140624-17.808594 2.453124-13.910157 3.4375-19.472657l27.265624 4.804688c3.449219.605469 6.84375-1.203125 8.25-4.398438 1.902344-4.277343 4.265626-8.371093 7.035157-12.164062 2.0625-2.808594 1.941406-6.671875-.300781-9.351562l-17.816407-21.21875 15.144531-12.710938 17.804688 21.210938c2.246094 2.679687 6.027344 3.46875 9.160156 1.933593 4.207032-2.074219 8.644532-3.691406 13.195313-4.804687 3.386719-.828125 5.769531-3.871094 5.769531-7.359375v-27.703125h19.777344v27.703125c0 3.488281 2.386718 6.53125 5.773437 7.359375 4.546875 1.113281 8.988281 2.730468 13.191407 4.804687 3.136718 1.535157 6.917968.746094 9.160156-1.933593l17.804687-21.210938 15.144531 12.710938-17.804687 21.21875c-2.242187 2.679687-2.375 6.542968-.3125 9.351562 2.78125 3.792969 5.144531 7.886719 7.035156 12.164062 1.40625 3.195313 4.804688 5.003907 8.25 4.398438l27.277344-4.804688 3.429687 19.472657-27.289062 4.8125c-3.4375.605469-6.023438 3.476562-6.246094 6.964843-.316406 4.691407-1.132812 9.351563-2.425781 13.832032-.972656 3.355468.472656 6.933594 3.496094 8.675781l23.980469 13.847656-9.886719 17.128907-24-13.863282c-3.023438-1.746094-6.847657-1.203125-9.261719 1.316406-3.253906 3.386719-6.875 6.429688-10.757812 9.039063-2.902344 1.949219-4.09375 5.609375-2.902344 8.886719l9.472656 26.03125-18.582031 6.765625c-14.925781-41.023438-7.753907-28.472657-31.472657-30.980469-3.457031-.371094-6.730468 1.671875-7.925781 4.945312l-9.472656 26.035157c-11.257813-4.097657-7.148437-2.601563-18.582031-6.765625 8.183594-22.503906 6.253906-17.203125 9.472656-26.03125 1.195312-3.277344 0-6.9375-2.890625-8.886719-3.695313-2.480469-7.425781-5.5625-10.769531-9.039063-2.414063-2.519531-6.234375-3.0625-9.257813-1.316406zm203.464844 251.328125-12.992187 22.503907c-45.097657-26.03125-28.332032-20.484376-51.589844-4.84375-2.894532 1.941406-4.097656 5.613281-2.902344 8.886718l11.625 31.929688-24.425781 8.886718-11.617188-31.929687c-1.101562-3.019531-3.960937-4.992187-7.117187-4.992187-.273438 0-.546875.019531-.808594.039062-5.609375.605469-11.253906.605469-16.863281 0-3.46875-.363281-6.734375 1.679688-7.925781 4.953125l-11.617188 31.929687-24.425781-8.886718 11.625-31.929688c1.195312-3.273437-.007813-6.945312-2.898438-8.886718-4.660156-3.132813-9-6.773438-12.890625-10.835938-2.417968-2.519531-6.25-3.054688-9.261718-1.316406l-29.441407 16.996094-12.992187-22.503907 29.421875-16.976562c3.011719-1.746094 4.457031-5.328125 3.488281-8.683594-1.558594-5.367187-2.527344-10.949219-2.902344-16.582031-.230468-3.476563-2.808594-6.359375-6.246094-6.964844l-33.476562-5.894531c3.671875-20.855469 2.265625-12.878907 4.507812-25.597657l33.457032 5.902344c3.4375.609375 6.84375-1.210937 8.25-4.40625 2.179687-4.929687 5.078125-10.007812 8.429687-14.570312 2.0625-2.820313 1.933594-6.679688-.3125-9.351563-21.539062-25.671875-17.757812-21.164062-21.835937-26.03125 3.789062-3.195312 15.859375-13.316406 19.90625-16.703125l21.835937 26.023438c2.234375 2.667968 6.027344 3.46875 9.148438 1.921875 5.046875-2.476563 10.363281-4.410157 15.824219-5.753907 3.386718-.828124 5.773437-3.871093 5.773437-7.359374v-33.96875h25.980469v33.96875c0 3.488281 2.386718 6.53125 5.773437 7.359374 5.460938 1.34375 10.777344 3.277344 15.824219 5.753907 3.132812 1.546875 6.914062.746093 9.148438-1.921875l21.839843-26.023438 19.90625 16.703125-21.839843 26.03125c-2.242188 2.671875-2.375 6.53125-.3125 9.351563 3.324218 4.542968 6.167968 9.445312 8.429687 14.570312 1.40625 3.195313 4.8125 5.015625 8.25 4.40625l33.457031-5.902344 4.507813 25.597657-33.472657 5.894531c-3.4375.605469-6.015624 3.488281-6.25 6.964844-1.871093 28.199218-14.9375 16.308594 30.007813 42.242187zm0 0" fill="#000000" data-original="#000000" style="" class=""/><path xmlns="http://www.w3.org/2000/svg" d="m427.039062 332.390625c-42.976562-42.972656-116.039062-11.933594-116.039062 48.066406 0 18.15625 7.070312 35.226563 19.910156 48.066407 33.707032 33.703124 90.53125 23.054687 110.015625-20.050782 1.722657-3.816406.027344-8.308594-3.785156-10.03125-3.816406-1.726562-8.308594-.03125-10.035156 3.785156-2.617188 5.792969-6.246094 11.03125-10.789063 15.570313-32.941406 32.945313-90.152344 9.898437-90.152344-37.339844 0-46.589843 56.746094-70.746093 90.152344-37.34375 8.90625 8.90625 14.34375 20.71875 15.3125 33.257813.320313 4.171875 3.964844 7.308594 8.140625 6.972656 4.175781-.320312 7.300781-3.964844 6.976563-8.140625-1.242188-16.140625-8.242188-31.347656-19.707032-42.8125zm0 0" fill="#000000" data-original="#000000" style="" class=""/><path xmlns="http://www.w3.org/2000/svg" d="m348.457031 349.941406c-16.824219 16.828125-16.824219 44.207032 0 61.03125v.003906c16.824219 16.820313 44.207031 16.824219 61.035157-.003906 16.828124-16.824218 16.828124-44.207031 0-61.03125-16.828126-16.828125-44.207032-16.824218-61.035157 0zm50.3125 50.308594c-10.914062 10.914062-28.671875 10.914062-39.589843 0-10.910157-10.914062-10.910157-28.671875 0-39.585938 10.914062-10.914062 28.675781-10.917968 39.589843 0 10.914063 10.914063 10.914063 28.671876 0 39.585938zm0 0" fill="#000000" data-original="#000000" style="" class=""/><path xmlns="http://www.w3.org/2000/svg" d="m381.855469 91.164062c-23.070313-23.050781-60.28125-22.957031-83.234375 0-17.398438 17.398438-21.605469 43.066407-12.617188 64.460938 8.753906 21.039062 29.753906 35.992188 54.230469 35.992188 52.242187 0 78.585937-63.476563 41.621094-100.453126zm-72.519531 10.726563c17.132812-17.113281 44.746093-17.050781 61.792968 0 17.035156 17.035156 17.035156 44.757813 0 61.792969s-44.757812 17.035156-61.792968 0c-17.035157-17.035156-17.035157-44.757813 0-61.792969zm0 0" fill="#000000" data-original="#000000" style="" class=""/><path xmlns="http://www.w3.org/2000/svg" d="m363.375 109.644531c-12.78125-12.800781-33.5-12.804687-46.285156 0-12.757813 12.757813-12.757813 33.523438 0 46.28125 6.179687 6.179688 14.398437 9.585938 23.144531 9.585938 28.878906 0 43.816406-35.210938 23.140625-55.867188zm-35.566406 10.714844c6.921875-6.902344 18.019531-6.828125 24.851562 0 11.058594 11.074219 3.117188 29.988281-12.425781 29.988281-15.574219 0-23.457031-18.941406-12.425781-29.988281zm0 0" fill="#000000" data-original="#000000" style="" class=""/><path xmlns="http://www.w3.org/2000/svg" d="m168.421875 355.945312h-137.445313c-11.808593 0-19.269531-13.003906-13.03125-23.386718 16.085938-26.808594 17.632813-57.371094 17.691407-58.65625v-44.695313c0-24.023437 6.703125-47.4375 19.382812-67.699219 2.222657-3.546874 1.140625-8.230468-2.40625-10.441406-3.550781-2.226562-8.230469-1.15625-10.457031 2.40625-14.183594 22.675782-21.683594 48.859375-21.683594 75.734375v44.160157c-.121094 2.171874-1.921875 28.703124-15.53125 51.386718-12.335937 20.546875 2.523438 46.355469 26.035156 46.355469h137.445313c4.1875 0 7.582031-3.394531 7.582031-7.582031 0-4.183594-3.394531-7.582032-7.582031-7.582032zm0 0" fill="#000000" data-original="#000000" style="" class=""/><path xmlns="http://www.w3.org/2000/svg" d="m162.261719 279.457031c-13.6875 0-19.132813-5.871093-23.109375-10.160156-2.085938-2.246094-3.734375-4.019531-6.109375-4.019531-3.980469 0-7.390625 4.71875-7.390625 8.582031 0 4.945313 7.5 16.648437 29.605468 20.191406v20.535157c0 4.523437 3.675782 8.199218 8.199219 8.199218 4.519531 0 8.195313-3.679687 8.195313-8.199218v-20.675782c19.875-3.230468 29.605468-16.925781 29.605468-36.796875 0-27.53125-18.867187-34.5-34.027343-40.097656-12.683594-4.683594-22.699219-8.378906-22.699219-21.074219 0-14.511718 12.242188-17.558594 22.511719-17.558594 9.71875 0 15.410156 2.929688 18.8125 4.675782 1.96875 1.015625 3.523437 1.820312 5.109375 1.820312 4.804687 0 7.21875-5.503906 7.21875-8.585937 0-8.507813-17.652344-11.886719-26.527344-12.519531v-20.867188c0-4.519531-3.679688-8.195312-8.199219-8.195312s-8.199219 3.675781-8.199219 8.195312v21.90625c-17 3.621094-26.527343 14.410156-26.527343 32.15625 0 22.902344 16.359375 29.046875 30.792969 34.464844 13.914062 5.226562 25.933593 9.742187 25.933593 26.707031 0 13.945313-8.019531 21.316406-23.195312 21.316406zm0 0" fill="#000000" data-original="#000000" style="" class=""/></g></svg>
